<svg width="80" height="80" viewBox="0 0 80 80" fill="none" xmlns="http://www.w3.org/2000/svg">
<circle cx="40" cy="40" r="40" fill="#FAFAFA"/>
<path fill-rule="evenodd" clip-rule="evenodd" d="M30.6667 30.6667C29.9303 30.6667 29.3333 31.2636 29.3333 32V50.6667C29.3333 51.4031 29.9303 52 30.6667 52H49.3333C50.0697 52 50.6667 51.4031 50.6667 50.6667V32C50.6667 31.2636 50.0697 30.6667 49.3333 30.6667H30.6667ZM26.6667 32C26.6667 29.7909 28.4575 28 30.6667 28H49.3333C51.5425 28 53.3333 29.7909 53.3333 32V50.6667C53.3333 52.8758 51.5425 54.6667 49.3333 54.6667H30.6667C28.4575 54.6667 26.6667 52.8758 26.6667 50.6667V32Z" fill="#FF3860"/>
<path fill-rule="evenodd" clip-rule="evenodd" d="M45.3333 25.3333C46.0697 25.3333 46.6667 25.9303 46.6667 26.6667V32C46.6667 32.7364 46.0697 33.3333 45.3333 33.3333C44.5969 33.3333 44 32.7364 44 32V26.6667C44 25.9303 44.5969 25.3333 45.3333 25.3333Z" fill="#FF3860"/>
<path fill-rule="evenodd" clip-rule="evenodd" d="M34.6667 25.3333C35.403 25.3333 36 25.9303 36 26.6667V32C36 32.7364 35.403 33.3333 34.6667 33.3333C33.9303 33.3333 33.3333 32.7364 33.3333 32V26.6667C33.3333 25.9303 33.9303 25.3333 34.6667 25.3333Z" fill="#FF3860"/>
<path fill-rule="evenodd" clip-rule="evenodd" d="M26.6667 37.3333C26.6667 36.597 27.2636 36 28 36H52C52.7364 36 53.3333 36.597 53.3333 37.3333C53.3333 38.0697 52.7364 38.6667 52 38.6667H28C27.2636 38.6667 26.6667 38.0697 26.6667 37.3333Z" fill="#FF3860"/>
</svg>
