<svg width="80" height="80" viewBox="0 0 80 80" fill="none" xmlns="http://www.w3.org/2000/svg">
<circle cx="40" cy="40" r="40" fill="#FAFAFA"/>
<path fill-rule="evenodd" clip-rule="evenodd" d="M29.3333 34.6667C28.597 34.6667 28 35.2636 28 36V49.3334C28 50.0697 28.597 50.6667 29.3333 50.6667H50.6667C51.4031 50.6667 52 50.0697 52 49.3334V36C52 35.2636 51.4031 34.6667 50.6667 34.6667H29.3333ZM25.3333 36C25.3333 33.7909 27.1242 32 29.3333 32H50.6667C52.8758 32 54.6667 33.7909 54.6667 36V49.3334C54.6667 51.5425 52.8758 53.3334 50.6667 53.3334H29.3333C27.1242 53.3334 25.3333 51.5425 25.3333 49.3334V36Z" fill="#B14AFD"/>
<path fill-rule="evenodd" clip-rule="evenodd" d="M34.5049 27.8383C35.2551 27.0881 36.2725 26.6667 37.3333 26.6667H42.6667C43.7275 26.6667 44.745 27.0881 45.4951 27.8383C46.2452 28.5884 46.6667 29.6058 46.6667 30.6667V52C46.6667 52.7364 46.0697 53.3334 45.3333 53.3334C44.597 53.3334 44 52.7364 44 52V30.6667C44 30.3131 43.8595 29.9739 43.6095 29.7239C43.3594 29.4738 43.0203 29.3334 42.6667 29.3334H37.3333C36.9797 29.3334 36.6406 29.4738 36.3905 29.7239C36.1405 29.9739 36 30.3131 36 30.6667V52C36 52.7364 35.4031 53.3334 34.6667 53.3334C33.9303 53.3334 33.3333 52.7364 33.3333 52V30.6667C33.3333 29.6058 33.7548 28.5884 34.5049 27.8383Z" fill="#B14AFD"/>
</svg>
