<svg width="80" height="80" viewBox="0 0 80 80" fill="none" xmlns="http://www.w3.org/2000/svg">
<circle cx="40" cy="40" r="40" fill="#FAFAFA"/>
<path fill-rule="evenodd" clip-rule="evenodd" d="M50.6667 39.3333C50.6667 32.093 42.7549 27.0798 36.2011 30.3901L36.1961 30.3927L36.1961 30.3927C31.3715 32.8039 29.2753 38.9519 31.7235 43.7989C31.8837 44.1162 31.9107 44.4844 31.7982 44.8216L30.1082 49.8918L35.1784 48.2018C35.5156 48.0893 35.8838 48.1163 36.2011 48.2765C42.6766 51.5473 50.6852 46.4546 50.6667 39.3368L50.6667 39.3333ZM53.3333 39.3318C53.3322 30.1517 43.3684 23.7847 35.0014 28.0086C29.0457 30.9869 26.3681 38.3942 29.0986 44.4877L26.7351 51.5784C26.5754 52.0575 26.7001 52.5857 27.0572 52.9428C27.4143 53.2999 27.9425 53.4246 28.4216 53.2649L35.512 50.9015C43.695 54.5764 53.355 48.2128 53.3333 39.3318Z" fill="#3273DC"/>
</svg>
