<svg width="80" height="80" viewBox="0 0 80 80" fill="none" xmlns="http://www.w3.org/2000/svg">
<circle cx="40" cy="40" r="40" fill="#FAFAFA"/>
<path fill-rule="evenodd" clip-rule="evenodd" d="M30.6667 29.3334C29.9303 29.3334 29.3333 29.9303 29.3333 30.6667V49.3334C29.3333 50.0697 29.9303 50.6667 30.6667 50.6667H49.3333C50.0697 50.6667 50.6667 50.0697 50.6667 49.3334V30.6667C50.6667 29.9303 50.0697 29.3334 49.3333 29.3334H30.6667ZM26.6667 30.6667C26.6667 28.4575 28.4575 26.6667 30.6667 26.6667H49.3333C51.5425 26.6667 53.3333 28.4575 53.3333 30.6667V49.3334C53.3333 51.5425 51.5425 53.3334 49.3333 53.3334H30.6667C28.4575 53.3334 26.6667 51.5425 26.6667 49.3334V30.6667Z" fill="#FFDD57"/>
<path fill-rule="evenodd" clip-rule="evenodd" d="M26.6667 36C26.6667 35.2636 27.2636 34.6667 28 34.6667H52C52.7364 34.6667 53.3333 35.2636 53.3333 36C53.3333 36.7364 52.7364 37.3334 52 37.3334H28C27.2636 37.3334 26.6667 36.7364 26.6667 36Z" fill="#FFDD57"/>
<path fill-rule="evenodd" clip-rule="evenodd" d="M36 34.6667C36.7364 34.6667 37.3333 35.2636 37.3333 36V52C37.3333 52.7364 36.7364 53.3334 36 53.3334C35.2636 53.3334 34.6667 52.7364 34.6667 52V36C34.6667 35.2636 35.2636 34.6667 36 34.6667Z" fill="#FFDD57"/>
</svg>
