<svg width="80" height="80" viewBox="0 0 80 80" fill="none" xmlns="http://www.w3.org/2000/svg">
<circle cx="40" cy="40" r="40" fill="#FAFAFA"/>
<path fill-rule="evenodd" clip-rule="evenodd" d="M29.1716 26.5049C29.9217 25.7548 30.9391 25.3333 32 25.3333H42.6667C43.0203 25.3333 43.3594 25.4738 43.6095 25.7239L51.6095 33.7239C51.8595 33.9739 52 34.3131 52 34.6667V50.6667C52 51.7275 51.5786 52.745 50.8284 53.4951C50.0783 54.2452 49.0609 54.6667 48 54.6667H32C30.9391 54.6667 29.9217 54.2452 29.1716 53.4951C28.4214 52.745 28 51.7275 28 50.6667V29.3333C28 28.2725 28.4214 27.2551 29.1716 26.5049ZM32 28C31.6464 28 31.3072 28.1405 31.0572 28.3905C30.8071 28.6406 30.6667 28.9797 30.6667 29.3333V50.6667C30.6667 51.0203 30.8071 51.3594 31.0572 51.6095C31.3072 51.8595 31.6464 52 32 52H48C48.3536 52 48.6928 51.8595 48.9428 51.6095C49.1929 51.3594 49.3333 51.0203 49.3333 50.6667V35.219L42.1144 28H32Z" fill="#00D1B2"/>
<path fill-rule="evenodd" clip-rule="evenodd" d="M42.6667 25.3333C43.403 25.3333 44 25.9303 44 26.6667V33.3333H50.6667C51.403 33.3333 52 33.9303 52 34.6667C52 35.4031 51.403 36 50.6667 36H42.6667C41.9303 36 41.3333 35.4031 41.3333 34.6667V26.6667C41.3333 25.9303 41.9303 25.3333 42.6667 25.3333Z" fill="#00D1B2"/>
<path fill-rule="evenodd" clip-rule="evenodd" d="M33.3333 41.3333C33.3333 40.597 33.9303 40 34.6667 40H45.3333C46.0697 40 46.6667 40.597 46.6667 41.3333C46.6667 42.0697 46.0697 42.6667 45.3333 42.6667H34.6667C33.9303 42.6667 33.3333 42.0697 33.3333 41.3333Z" fill="#00D1B2"/>
<path fill-rule="evenodd" clip-rule="evenodd" d="M33.3333 46.6667C33.3333 45.9303 33.9303 45.3333 34.6667 45.3333H45.3333C46.0697 45.3333 46.6667 45.9303 46.6667 46.6667C46.6667 47.4031 46.0697 48 45.3333 48H34.6667C33.9303 48 33.3333 47.4031 33.3333 46.6667Z" fill="#00D1B2"/>
<path fill-rule="evenodd" clip-rule="evenodd" d="M33.3333 36C33.3333 35.2636 33.9303 34.6667 34.6667 34.6667H37.3333C38.0697 34.6667 38.6667 35.2636 38.6667 36C38.6667 36.7364 38.0697 37.3333 37.3333 37.3333H34.6667C33.9303 37.3333 33.3333 36.7364 33.3333 36Z" fill="#00D1B2"/>
</svg>
